REM DIRINDEX 1\4,1\2\5,1\2\6,1\2\7,1\3\8,1\3\9,1\3\10,1\3\11
REM DIRNAME cjc108,folder01,folder02,folder03,folder04,folder05,folder06,folder07,folder08,folder09,folder10
TITLE ""
FILE "t_j_34.mp3" MP3
  TRACK 01 AUDIO
    TITLE "8:cjc108_2560"
    INDEX 01 00:00:00
  TRACK 02 AUDIO
    TITLE "0:"
    INDEX 01 00:02:73
  TRACK 03 AUDIO
    TITLE "9:cjc108_2561"
    INDEX 01 00:04:09
  TRACK 04 AUDIO
    TITLE "0:"
    INDEX 01 00:05:20
  TRACK 05 AUDIO
    TITLE "10:cjc108_2562"
    INDEX 01 00:05:32
  TRACK 06 AUDIO
    TITLE "0:"
    INDEX 01 00:08:34
  TRACK 07 AUDIO
    TITLE "9:cjc108_2563"
    INDEX 01 00:09:14
  TRACK 08 AUDIO
    TITLE "0:"
    INDEX 01 00:10:66
  TRACK 09 AUDIO
    TITLE "10:cjc108_2564"
    INDEX 01 00:11:07
  TRACK 10 AUDIO
    TITLE "0:"
    INDEX 01 00:13:08
  TRACK 11 AUDIO
    TITLE "11:cjc108_2565"
    INDEX 01 00:13:65
  TRACK 12 AUDIO
    TITLE "0:"
    INDEX 01 00:17:43
  TRACK 13 AUDIO
    TITLE "9:cjc108_2566"
    INDEX 01 00:19:18
  TRACK 14 AUDIO
    TITLE "0:"
    INDEX 01 00:20:55
  TRACK 15 AUDIO
    TITLE "10:cjc108_2567"
    INDEX 01 00:20:71
  TRACK 16 AUDIO
    TITLE "0:"
    INDEX 01 00:22:07
  TRACK 17 AUDIO
    TITLE "11:cjc108_2568"
    INDEX 01 00:22:58
  TRACK 18 AUDIO
    TITLE "0:"
    INDEX 01 00:25:56
  TRACK 19 AUDIO
    TITLE "9:cjc108_2569"
    INDEX 01 00:27:36
  TRACK 20 AUDIO
    TITLE "0:"
    INDEX 01 00:28:33
  TRACK 21 AUDIO
    TITLE "10:cjc108_2570"
    INDEX 01 00:28:43
  TRACK 22 AUDIO
    TITLE "0:"
    INDEX 01 00:29:74
  TRACK 23 AUDIO
    TITLE "11:cjc108_2571"
    INDEX 01 00:30:52
  TRACK 24 AUDIO
    TITLE "0:"
    INDEX 01 00:38:31
  TRACK 25 AUDIO
    TITLE "9:cjc108_2572"
    INDEX 01 00:40:15
  TRACK 26 AUDIO
    TITLE "0:"
    INDEX 01 00:41:10
  TRACK 27 AUDIO
    TITLE "10:cjc108_2573"
    INDEX 01 00:41:34
  TRACK 28 AUDIO
    TITLE "0:"
    INDEX 01 00:43:50
  TRACK 29 AUDIO
    TITLE "11:cjc108_2574"
    INDEX 01 00:44:30
  TRACK 30 AUDIO
    TITLE "0:"
    INDEX 01 00:46:64
  TRACK 31 AUDIO
    TITLE "9:cjc108_2575"
    INDEX 01 00:48:46
  TRACK 32 AUDIO
    TITLE "0:"
    INDEX 01 00:49:65
  TRACK 33 AUDIO
    TITLE "10:cjc108_2576"
    INDEX 01 00:50:05
  TRACK 34 AUDIO
    TITLE "0:"
    INDEX 01 00:51:11
  TRACK 35 AUDIO
    TITLE "9:cjc108_2577"
    INDEX 01 00:51:65
  TRACK 36 AUDIO
    TITLE "0:"
    INDEX 01 00:52:69
  TRACK 37 AUDIO
    TITLE "10:cjc108_2578"
    INDEX 01 00:53:09
  TRACK 38 AUDIO
    TITLE "0:"
    INDEX 01 00:55:36
  TRACK 39 AUDIO
    TITLE "9:cjc108_2579"
    INDEX 01 00:56:18
  TRACK 40 AUDIO
    TITLE "0:"
    INDEX 01 00:57:66
  TRACK 41 AUDIO
    TITLE "10:cjc108_2580"
    INDEX 01 00:58:03
  TRACK 42 AUDIO
    TITLE "0:"
    INDEX 01 01:00:29
  TRACK 43 AUDIO
    TITLE "11:cjc108_2581"
    INDEX 01 01:01:09
  TRACK 44 AUDIO
    TITLE "0:"
    INDEX 01 01:06:24
  TRACK 45 AUDIO
    TITLE "9:cjc108_2582"
    INDEX 01 01:08:09
  TRACK 46 AUDIO
    TITLE "0:"
    INDEX 01 01:09:30
  TRACK 47 AUDIO
    TITLE "10:cjc108_2583"
    INDEX 01 01:09:50
  TRACK 48 AUDIO
    TITLE "0:"
    INDEX 01 01:11:11
  TRACK 49 AUDIO
    TITLE "9:cjc108_2584"
    INDEX 01 01:11:66
  TRACK 50 AUDIO
    TITLE "0:"
    INDEX 01 01:12:73
  TRACK 51 AUDIO
    TITLE "10:cjc108_2585"
    INDEX 01 01:13:02
  TRACK 52 AUDIO
    TITLE "0:"
    INDEX 01 01:15:40
  TRACK 53 AUDIO
    TITLE "11:cjc108_2586"
    INDEX 01 01:16:20
  TRACK 54 AUDIO
    TITLE "0:"
    INDEX 01 01:24:00
  TRACK 55 AUDIO
    TITLE "9:cjc108_2587"
    INDEX 01 01:25:51
  TRACK 56 AUDIO
    TITLE "0:"
    INDEX 01 01:26:54
  TRACK 57 AUDIO
    TITLE "10:cjc108_2588"
    INDEX 01 01:26:56
  TRACK 58 AUDIO
    TITLE "0:"
    INDEX 01 01:28:74
  TRACK 59 AUDIO
    TITLE "9:cjc108_2589"
    INDEX 01 01:29:50
  TRACK 60 AUDIO
    TITLE "0:"
    INDEX 01 01:30:67
  TRACK 61 AUDIO
    TITLE "10:cjc108_2590"
    INDEX 01 01:31:10
  TRACK 62 AUDIO
    TITLE "0:"
    INDEX 01 01:32:08
  TRACK 63 AUDIO
    TITLE "11:cjc108_2591"
    INDEX 01 01:32:60
  TRACK 64 AUDIO
    TITLE "0:"
    INDEX 01 01:38:28
